<svg width="760" height="180" viewBox="0 0 760 180" fill="none" xmlns="http://www.w3.org/2000/svg" role="img" aria-labelledby="title desc">
  <title id="title">AI-Native Framework Governed Orchestration banner</title>
  <desc id="desc">Horizontal lockup from the Governed Orchestration concept in Figma Make.</desc>
  <rect width="760" height="180" fill="#F9FAFB"/>
  <g transform="translate(40 30)">
    <path d="M30 15 L15 15 L15 105 L30 105" stroke="#000" stroke-width="3.5" fill="none" stroke-linecap="square" />
    <path d="M90 15 L105 15 L105 105 L90 105" stroke="#000" stroke-width="3.5" fill="none" stroke-linecap="square" />
    <rect x="35" y="35" width="50" height="50" stroke="#000" stroke-width="2.5" fill="none" />
    <line x1="60" y1="60" x2="48" y2="48" stroke="#000" stroke-width="1.5" opacity="0.4" />
    <line x1="60" y1="60" x2="72" y2="48" stroke="#000" stroke-width="1.5" opacity="0.4" />
    <line x1="60" y1="60" x2="48" y2="72" stroke="#000" stroke-width="1.5" opacity="0.4" />
    <line x1="60" y1="60" x2="72" y2="72" stroke="#000" stroke-width="1.5" opacity="0.4" />
    <line x1="48" y1="48" x2="72" y2="48" stroke="#000" stroke-width="1.5" opacity="0.4" />
    <circle cx="60" cy="60" r="5" fill="#000" />
    <circle cx="48" cy="48" r="5" fill="#000" />
    <circle cx="72" cy="48" r="5" fill="#000" />
    <circle cx="48" cy="72" r="5" fill="#000" />
    <circle cx="72" cy="72" r="5" fill="#000" />
  </g>
  <text x="190" y="98" fill="#111827" font-family="Inter, Arial, sans-serif" font-size="38" font-weight="700" letter-spacing="-0.03em">AI-Native Framework</text>
</svg>
